<svg width="290" height="30" viewBox="0 0 290 30" fill="none" xmlns="http://www.w3.org/2000/svg">
<path d="M33.6285 -7.05719e-05L29.8342 15.0629L25.5657 -7.05719e-05H16.649L12.3804 15.0629L8.681 -7.05719e-05H0.0489502L7.44782 29.6035H17.4165L17.5015 19.937L20.1113 19.0107L14.657 19.0978V14.8314L19.4947 10.3909H25.5657V29.6035H34.2925L42.0708 -7.05719e-05H33.6285Z" fill="#2C3792"/>
<path d="M53.656 23.6172V7.40219H59.843C61.729 7.40219 63.3237 7.72419 64.627 8.36819C65.9303 9.01219 66.9117 9.93985 67.571 11.1512C68.2457 12.3472 68.583 13.7962 68.583 15.4982C68.583 17.1849 68.2457 18.6339 67.571 19.8452C66.9117 21.0565 65.9303 21.9919 64.627 22.6512C63.3237 23.2952 61.729 23.6172 59.843 23.6172H53.656ZM57.244 20.6732H59.636C61.4453 20.6732 62.787 20.2515 63.661 19.4082C64.5503 18.5495 64.995 17.2462 64.995 15.4982C64.995 13.7349 64.5503 12.4315 63.661 11.5882C62.787 10.7449 61.4453 10.3232 59.636 10.3232H57.244V20.6732ZM75.2411 23.8702C74.2291 23.8702 73.3398 23.6249 72.5731 23.1342C71.8065 22.6435 71.2085 21.9459 70.7791 21.0412C70.3498 20.1365 70.1351 19.0479 70.1351 17.7752C70.1351 16.5179 70.3498 15.4369 70.7791 14.5322C71.2085 13.6275 71.8065 12.9375 72.5731 12.4622C73.3398 11.9715 74.2291 11.7262 75.2411 11.7262C76.1765 11.7262 77.0121 11.9562 77.7481 12.4162C78.4995 12.8609 78.9901 13.4665 79.2201 14.2332H78.9671L79.2431 11.9562H82.5781C82.5321 12.4622 82.4861 12.9759 82.4401 13.4972C82.4095 14.0032 82.3941 14.5015 82.3941 14.9922V23.6172H78.9441L78.9211 21.4322H79.1971C78.9518 22.1682 78.4611 22.7585 77.7251 23.2032C76.9891 23.6479 76.1611 23.8702 75.2411 23.8702ZM76.2991 21.2482C77.0965 21.2482 77.7405 20.9645 78.2311 20.3972C78.7218 19.8299 78.9671 18.9559 78.9671 17.7752C78.9671 16.5945 78.7218 15.7282 78.2311 15.1762C77.7405 14.6242 77.0965 14.3482 76.2991 14.3482C75.5018 14.3482 74.8578 14.6242 74.3671 15.1762C73.8765 15.7282 73.6311 16.5945 73.6311 17.7752C73.6311 18.9559 73.8688 19.8299 74.3441 20.3972C74.8348 20.9645 75.4865 21.2482 76.2991 21.2482ZM90.2334 23.8702C88.7154 23.8702 87.573 23.4945 86.8064 22.7432C86.0397 21.9765 85.6564 20.8342 85.6564 19.3162V14.5552H83.4484V11.9562H85.6564V9.10419L89.1294 8.25319V11.9562H92.1194V14.5552H89.1294V19.1322C89.1294 19.8682 89.2827 20.3742 89.5894 20.6502C89.896 20.9262 90.287 21.0642 90.7624 21.0642C91.0537 21.0642 91.2914 21.0489 91.4754 21.0182C91.6747 20.9722 91.8817 20.9109 92.0964 20.8342V23.5252C91.805 23.6479 91.4984 23.7322 91.1764 23.7782C90.8544 23.8395 90.54 23.8702 90.2334 23.8702ZM97.9725 23.8702C96.9605 23.8702 96.0712 23.6249 95.3045 23.1342C94.5378 22.6435 93.9398 21.9459 93.5105 21.0412C93.0812 20.1365 92.8665 19.0479 92.8665 17.7752C92.8665 16.5179 93.0812 15.4369 93.5105 14.5322C93.9398 13.6275 94.5378 12.9375 95.3045 12.4622C96.0712 11.9715 96.9605 11.7262 97.9725 11.7262C98.9078 11.7262 99.7435 11.9562 100.48 12.4162C101.231 12.8609 101.722 13.4665 101.952 14.2332H101.699L101.975 11.9562H105.31C105.264 12.4622 105.218 12.9759 105.172 13.4972C105.141 14.0032 105.126 14.5015 105.126 14.9922V23.6172H101.676L101.653 21.4322H101.929C101.683 22.1682 101.193 22.7585 100.457 23.2032C99.7205 23.6479 98.8925 23.8702 97.9725 23.8702ZM99.0305 21.2482C99.8278 21.2482 100.472 20.9645 100.963 20.3972C101.453 19.8299 101.699 18.9559 101.699 17.7752C101.699 16.5945 101.453 15.7282 100.963 15.1762C100.472 14.6242 99.8278 14.3482 99.0305 14.3482C98.2332 14.3482 97.5892 14.6242 97.0985 15.1762C96.6078 15.7282 96.3625 16.5945 96.3625 17.7752C96.3625 18.9559 96.6002 19.8299 97.0755 20.3972C97.5662 20.9645 98.2178 21.2482 99.0305 21.2482ZM117.524 23.6172V10.3232H112.372V7.40219H126.264V10.3232H121.112V23.6172H117.524ZM125.685 23.6172V15.0382C125.685 14.5322 125.67 14.0185 125.639 13.4972C125.624 12.9759 125.585 12.4622 125.524 11.9562H128.859L129.25 15.3602H128.721C128.874 14.5322 129.12 13.8499 129.457 13.3132C129.81 12.7765 130.239 12.3779 130.745 12.1172C131.266 11.8565 131.857 11.7262 132.516 11.7262C132.807 11.7262 133.037 11.7415 133.206 11.7722C133.375 11.7875 133.543 11.8259 133.712 11.8872L133.689 14.9462C133.367 14.8082 133.091 14.7239 132.861 14.6932C132.646 14.6472 132.37 14.6242 132.033 14.6242C131.389 14.6242 130.852 14.7469 130.423 14.9922C130.009 15.2375 129.695 15.5979 129.48 16.0732C129.281 16.5485 129.181 17.1235 129.181 17.7982V23.6172H125.685ZM139.123 23.8702C138.111 23.8702 137.221 23.6249 136.455 23.1342C135.688 22.6435 135.09 21.9459 134.661 21.0412C134.231 20.1365 134.017 19.0479 134.017 17.7752C134.017 16.5179 134.231 15.4369 134.661 14.5322C135.09 13.6275 135.688 12.9375 136.455 12.4622C137.221 11.9715 138.111 11.7262 139.123 11.7262C140.058 11.7262 140.894 11.9562 141.63 12.4162C142.381 12.8609 142.872 13.4665 143.102 14.2332H142.849L143.125 11.9562H146.46C146.414 12.4622 146.368 12.9759 146.322 13.4972C146.291 14.0032 146.276 14.5015 146.276 14.9922V23.6172H142.826L142.803 21.4322H143.079C142.833 22.1682 142.343 22.7585 141.607 23.2032C140.871 23.6479 140.043 23.8702 139.123 23.8702ZM140.181 21.2482C140.978 21.2482 141.622 20.9645 142.113 20.3972C142.603 19.8299 142.849 18.9559 142.849 17.7752C142.849 16.5945 142.603 15.7282 142.113 15.1762C141.622 14.6242 140.978 14.3482 140.181 14.3482C139.383 14.3482 138.739 14.6242 138.249 15.1762C137.758 15.7282 137.513 16.5945 137.513 17.7752C137.513 18.9559 137.75 19.8299 138.226 20.3972C138.716 20.9645 139.368 21.2482 140.181 21.2482ZM154.276 23.8702C153.034 23.8702 151.945 23.6249 151.01 23.1342C150.075 22.6435 149.354 21.9382 148.848 21.0182C148.342 20.0982 148.089 19.0095 148.089 17.7522C148.089 16.4795 148.342 15.3985 148.848 14.5092C149.369 13.6045 150.09 12.9145 151.01 12.4392C151.945 11.9639 153.034 11.7262 154.276 11.7262C155.058 11.7262 155.817 11.8412 156.553 12.0712C157.304 12.3012 157.918 12.6232 158.393 13.0372L157.381 15.4292C156.998 15.0765 156.553 14.8159 156.047 14.6472C155.556 14.4632 155.081 14.3712 154.621 14.3712C153.686 14.3712 152.957 14.6625 152.436 15.2452C151.915 15.8279 151.654 16.6712 151.654 17.7752C151.654 18.8792 151.915 19.7225 152.436 20.3052C152.957 20.8879 153.686 21.1792 154.621 21.1792C155.066 21.1792 155.533 21.0949 156.024 20.9262C156.53 20.7575 156.982 20.5045 157.381 20.1672L158.393 22.5362C157.902 22.9502 157.281 23.2799 156.53 23.5252C155.794 23.7552 155.043 23.8702 154.276 23.8702ZM159.906 23.6172V6.68919H163.379V16.8092H163.425L167.749 11.9562H171.889L166.3 18.1662V16.9012L172.188 23.6172H167.933L163.425 18.5572H163.379V23.6172H159.906ZM172.653 23.6172V11.9562H176.126V23.6172H172.653ZM172.515 10.0472V6.80419H176.241V10.0472H172.515ZM178.505 23.6172V14.9922C178.505 14.5015 178.489 14.0032 178.459 13.4972C178.428 12.9759 178.382 12.4622 178.321 11.9562H181.656L181.909 14.1182H181.633C182.016 13.3515 182.56 12.7612 183.266 12.3472C183.971 11.9332 184.791 11.7262 185.727 11.7262C187.091 11.7262 188.111 12.1249 188.786 12.9222C189.476 13.7042 189.821 14.9232 189.821 16.5792V23.6172H186.348V16.7402C186.348 15.8969 186.194 15.2989 185.888 14.9462C185.581 14.5935 185.121 14.4172 184.508 14.4172C183.741 14.4172 183.128 14.6625 182.668 15.1532C182.208 15.6285 181.978 16.2725 181.978 17.0852V23.6172H178.505ZM197.693 28.7692C196.574 28.7692 195.577 28.6542 194.703 28.4242C193.829 28.2095 193.047 27.8799 192.357 27.4352L193.024 24.9512C193.453 25.2272 193.906 25.4495 194.381 25.6182C194.872 25.8022 195.37 25.9325 195.876 26.0092C196.397 26.1012 196.911 26.1472 197.417 26.1472C198.444 26.1472 199.211 25.9019 199.717 25.4112C200.223 24.9205 200.476 24.2229 200.476 23.3182V20.9032H200.706C200.461 21.6392 199.97 22.2295 199.234 22.6742C198.498 23.1189 197.67 23.3412 196.75 23.3412C195.707 23.3412 194.795 23.1035 194.013 22.6282C193.246 22.1529 192.648 21.4782 192.219 20.6042C191.79 19.7302 191.575 18.7029 191.575 17.5222C191.575 16.3415 191.79 15.3142 192.219 14.4402C192.648 13.5662 193.246 12.8992 194.013 12.4392C194.795 11.9639 195.707 11.7262 196.75 11.7262C197.685 11.7262 198.506 11.9485 199.211 12.3932C199.932 12.8225 200.415 13.3975 200.66 14.1182L200.476 14.0262L200.706 11.9562H204.064C204.003 12.4622 203.957 12.9759 203.926 13.4972C203.895 14.0032 203.88 14.5015 203.88 14.9922V22.9272C203.88 24.8132 203.351 26.2545 202.293 27.2512C201.235 28.2632 199.702 28.7692 197.693 28.7692ZM197.785 20.7192C198.598 20.7192 199.242 20.4432 199.717 19.8912C200.192 19.3392 200.43 18.5495 200.43 17.5222C200.43 16.4949 200.192 15.7129 199.717 15.1762C199.242 14.6242 198.598 14.3482 197.785 14.3482C196.942 14.3482 196.275 14.6242 195.784 15.1762C195.309 15.7129 195.071 16.4949 195.071 17.5222C195.071 18.5495 195.309 19.3392 195.784 19.8912C196.275 20.4432 196.942 20.7192 197.785 20.7192ZM218.371 23.8702C217.068 23.8702 215.849 23.7092 214.714 23.3872C213.579 23.0652 212.613 22.6205 211.816 22.0532L212.874 19.2472C213.395 19.5999 213.947 19.8989 214.53 20.1442C215.113 20.3895 215.726 20.5812 216.37 20.7192C217.014 20.8419 217.689 20.9032 218.394 20.9032C219.498 20.9032 220.28 20.7345 220.74 20.3972C221.215 20.0599 221.453 19.6305 221.453 19.1092C221.453 18.6339 221.292 18.2735 220.97 18.0282C220.663 17.7675 220.096 17.5452 219.268 17.3612L216.554 16.8092C215.067 16.5025 213.955 15.9812 213.219 15.2452C212.483 14.5092 212.115 13.5279 212.115 12.3012C212.115 11.2585 212.391 10.3539 212.943 9.58719C213.495 8.82052 214.269 8.22252 215.266 7.79319C216.278 7.36385 217.459 7.14919 218.808 7.14919C219.958 7.14919 221.031 7.31019 222.028 7.63219C223.025 7.95419 223.845 8.41419 224.489 9.01219L223.431 11.6342C222.802 11.1282 222.097 10.7525 221.315 10.5072C220.548 10.2465 219.69 10.1162 218.739 10.1162C217.742 10.1162 216.976 10.2925 216.439 10.6452C215.918 10.9979 215.657 11.4809 215.657 12.0942C215.657 12.5542 215.818 12.9299 216.14 13.2212C216.462 13.4972 217.029 13.7195 217.842 13.8882L220.51 14.4172C222.028 14.7239 223.155 15.2375 223.891 15.9582C224.627 16.6789 224.995 17.6372 224.995 18.8332C224.995 19.8452 224.719 20.7269 224.167 21.4782C223.63 22.2295 222.864 22.8199 221.867 23.2492C220.886 23.6632 219.72 23.8702 218.371 23.8702ZM226.638 28.8382L225.833 26.1242C226.553 25.9862 227.159 25.8252 227.65 25.6412C228.156 25.4572 228.57 25.2119 228.892 24.9052C229.214 24.6139 229.474 24.2305 229.674 23.7552L230.249 22.3982L230.157 23.7322L225.097 11.9562H228.754L232.089 20.3972H231.376L234.757 11.9562H238.207L232.94 24.0772C232.556 24.9512 232.142 25.6719 231.698 26.2392C231.268 26.8219 230.801 27.2819 230.295 27.6192C229.789 27.9565 229.229 28.2172 228.616 28.4012C228.018 28.5852 227.358 28.7309 226.638 28.8382ZM243.014 23.8702C241.972 23.8702 241.021 23.7552 240.162 23.5252C239.304 23.2952 238.575 22.9732 237.977 22.5592L238.874 20.2592C239.472 20.6272 240.132 20.9185 240.852 21.1332C241.588 21.3479 242.317 21.4552 243.037 21.4552C243.712 21.4552 244.21 21.3479 244.532 21.1332C244.854 20.9185 245.015 20.6272 245.015 20.2592C245.015 19.9525 244.908 19.7149 244.693 19.5462C244.494 19.3775 244.18 19.2549 243.75 19.1782L241.381 18.7412C240.385 18.5419 239.626 18.1739 239.104 17.6372C238.583 17.1005 238.322 16.4029 238.322 15.5442C238.322 14.7929 238.522 14.1335 238.92 13.5662C239.334 12.9835 239.925 12.5312 240.691 12.2092C241.458 11.8872 242.355 11.7262 243.382 11.7262C244.256 11.7262 245.084 11.8335 245.866 12.0482C246.648 12.2629 247.315 12.5925 247.867 13.0372L246.924 15.2682C246.449 14.9155 245.897 14.6319 245.268 14.4172C244.655 14.2025 244.065 14.0952 243.497 14.0952C242.761 14.0952 242.232 14.2179 241.91 14.4632C241.588 14.6932 241.427 14.9922 241.427 15.3602C241.427 15.6362 241.519 15.8662 241.703 16.0502C241.903 16.2342 242.202 16.3722 242.6 16.4642L244.992 16.9012C246.02 17.0852 246.802 17.4302 247.338 17.9362C247.875 18.4422 248.143 19.1399 248.143 20.0292C248.143 20.8419 247.929 21.5319 247.499 22.0992C247.07 22.6665 246.464 23.1035 245.682 23.4102C244.916 23.7169 244.026 23.8702 243.014 23.8702ZM255.182 23.8702C253.664 23.8702 252.522 23.4945 251.755 22.7432C250.988 21.9765 250.605 20.8342 250.605 19.3162V14.5552H248.397V11.9562H250.605V9.10419L254.078 8.25319V11.9562H257.068V14.5552H254.078V19.1322C254.078 19.8682 254.231 20.3742 254.538 20.6502C254.845 20.9262 255.236 21.0642 255.711 21.0642C256.002 21.0642 256.24 21.0489 256.424 21.0182C256.623 20.9722 256.83 20.9109 257.045 20.8342V23.5252C256.754 23.6479 256.447 23.7322 256.125 23.7782C255.803 23.8395 255.489 23.8702 255.182 23.8702ZM264.143 23.8702C262.119 23.8702 260.54 23.3259 259.405 22.2372C258.27 21.1485 257.703 19.6689 257.703 17.7982C257.703 16.5869 257.941 15.5289 258.416 14.6242C258.907 13.7195 259.581 13.0142 260.44 12.5082C261.314 11.9869 262.334 11.7262 263.499 11.7262C264.649 11.7262 265.607 11.9715 266.374 12.4622C267.156 12.9529 267.739 13.6429 268.122 14.5322C268.521 15.4062 268.72 16.4259 268.72 17.5912V18.3962H260.555V16.6712H266.19L265.799 16.9932C265.799 16.0272 265.6 15.2989 265.201 14.8082C264.818 14.3022 264.258 14.0492 263.522 14.0492C262.709 14.0492 262.081 14.3482 261.636 14.9462C261.207 15.5442 260.992 16.4029 260.992 17.5222V17.8902C260.992 19.0249 261.268 19.8682 261.82 20.4202C262.387 20.9722 263.2 21.2482 264.258 21.2482C264.887 21.2482 265.477 21.1715 266.029 21.0182C266.596 20.8495 267.133 20.5889 267.639 20.2362L268.605 22.5362C268.022 22.9655 267.348 23.2952 266.581 23.5252C265.83 23.7552 265.017 23.8702 264.143 23.8702ZM270.463 23.6172V14.9922C270.463 14.5015 270.448 14.0032 270.417 13.4972C270.387 12.9759 270.341 12.4622 270.279 11.9562H273.614L273.867 14.1182H273.591C273.929 13.3822 274.427 12.7995 275.086 12.3702C275.746 11.9409 276.528 11.7262 277.432 11.7262C278.322 11.7262 279.065 11.9409 279.663 12.3702C280.277 12.7842 280.714 13.4359 280.974 14.3252H280.606C280.944 13.5279 281.48 12.8992 282.216 12.4392C282.952 11.9639 283.788 11.7262 284.723 11.7262C286.042 11.7262 287.023 12.1172 287.667 12.8992C288.311 13.6812 288.633 14.9079 288.633 16.5792V23.6172H285.16V16.6942C285.16 15.8815 285.03 15.2989 284.769 14.9462C284.509 14.5935 284.087 14.4172 283.504 14.4172C282.814 14.4172 282.27 14.6625 281.871 15.1532C281.473 15.6439 281.273 16.3185 281.273 17.1772V23.6172H277.8V16.6942C277.8 15.8815 277.67 15.2989 277.409 14.9462C277.149 14.5935 276.727 14.4172 276.144 14.4172C275.454 14.4172 274.91 14.6625 274.511 15.1532C274.128 15.6439 273.936 16.3185 273.936 17.1772V23.6172H270.463Z" fill="#090C1F" fill-opacity="0.9"/>
</svg>
