<svg width="21" height="18" viewBox="0 0 21 18" fill="none" xmlns="http://www.w3.org/2000/svg">
<path d="M1.17514 10.2854H14.9822C15.6176 10.2854 16.1329 9.70997 16.1329 8.99965C16.1329 8.28966 15.6179 7.71387 14.9822 7.71387H1.17514C0.539756 7.71387 0.0244751 8.28934 0.0244751 8.99965C0.0244751 9.70965 0.539468 10.2854 1.17514 10.2854Z" fill="#090C1F" fill-opacity="0.9"/>
<path d="M1.17514 18.0003H19.5846C20.22 18.0003 20.7353 17.4248 20.7353 16.7145C20.7353 16.0045 20.2203 15.4287 19.5846 15.4287H1.17514C0.539756 15.4287 0.0244751 16.0042 0.0244751 16.7145C0.0244751 17.4245 0.539468 18.0003 1.17514 18.0003Z" fill="#090C1F" fill-opacity="0.9"/>
<path d="M19.5846 0H1.17514C0.539756 0 0.0244751 0.575471 0.0244751 1.28579C0.0244751 1.99578 0.539468 2.57157 1.17514 2.57157H19.5846C20.22 2.57157 20.7353 1.9961 20.7353 1.28579C20.735 0.575792 20.22 0 19.5843 0H19.5846Z" fill="#090C1F" fill-opacity="0.9"/>
</svg>
